{
  "accessors": [
    {
      "bufferView": 0,
      "componentType": 5126,
      "count": 8499,
      "max": [
        7.481719970703125,
        4.875996112823486,
        3.0589568614959717
      ],
      "min": [
        -7.4940409660339355,
        -5.1640424728393555,
        -3.039083242416382
      ],
      "type": "VEC3"
    },
    {
      "bufferView": 0,
      "byteOffset": 12,
      "componentType": 5126,
      "count": 8499,
      "type": "VEC3"
    },
    {
      "bufferView": 0,
      "byteOffset": 24,
      "componentType": 5126,
      "count": 8499,
      "type": "VEC2"
    },
    {
      "bufferView": 1,
      "componentType": 5125,
      "count": 41229,
      "type": "SCALAR"
    }
  ],
  "asset": {
    "version": "2.0"
  },
  "bufferViews": [
    {
      "buffer": 0,
      "byteLength": 271968,
      "byteStride": 32,
      "target": 34962
    },
    {
      "buffer": 0,
      "byteLength": 164916,
      "byteOffset": 271968,
      "target": 34963
    }
  ],
  "buffers": [
    {
      "byteLength": 436884,
      "uri": "scene.bin"
    }
  ],
  "images": [
    {
      "uri": "CONTROLLER_A_normal.png"
    },
    {
      "uri": "CONTROLLER_A_base_color.png"
    },
    {
      "uri": "Controller_Ametallicroughnesstex.png"
    }
  ],
  "materials": [
    {
      "name": "node1",
      "normalTexture": {
        "index": 0,
        "scale": 1.0
      },
      "pbrMetallicRoughness": {
        "baseColorFactor": [
          0.4078429937362671,
          0.4078429937362671,
          0.4078429937362671,
          1.0
        ],
        "baseColorTexture": {
          "index": 1
        },
        "metallicRoughnessTexture": {
          "index": 2
        }
      }
    }
  ],
  "meshes": [
    {
      "name": "Controller",
      "primitives": [
        {
          "attributes": {
            "NORMAL": 1,
            "POSITION": 0,
            "TEXCOORD_0": 2
          },
          "indices": 3,
          "material": 0,
          "mode": 4
        }
      ]
    }
  ],
  "nodes": [
    {
      "matrix": [
        0.0254,
        0.0,
        0.0,
        0.0,
        0.0,
        0.0254,
        0.0,
        0.0,
        0.0,
        0.0,
        0.0254,
        0.0,
        0.0,
        0.0,
        0.0,
        1.0
      ],
      "mesh": 0,
      "name": "Controller"
    },
    {
      "children": [
        0
      ],
      "matrix": [
        9.646021842956543,
        0.0,
        0.0,
        0.0,
        0.0,
        7.9015583992004395,
        -5.532730579376221,
        0.0,
        0.0,
        5.532730579376221,
        7.9015583992004395,
        0.0,
        0.0,
        6.242563922119141,
        0.0,
        1.0
      ]
    }
  ],
  "samplers": [
    {
      "magFilter": 9729,
      "minFilter": 9729,
      "wrapS": 10497,
      "wrapT": 10497
    },
    {
      "magFilter": 9729,
      "minFilter": 9729,
      "wrapS": 10497,
      "wrapT": 10497
    },
    {
      "magFilter": 9729,
      "minFilter": 9729,
      "wrapS": 10497,
      "wrapT": 10497
    }
  ],
  "scenes": [
    {
      "nodes": [
        1
      ]
    }
  ],
  "textures": [
    {
      "name": "texture_source0_sampler0",
      "sampler": 0,
      "source": 0
    },
    {
      "name": "texture_source1_sampler1",
      "sampler": 1,
      "source": 1
    },
    {
      "name": "texture_source2_sampler2",
      "sampler": 2,
      "source": 2
    }
  ]
}
