<?xml version="1.0" standalone="no"?>
<!DOCTYPE svg PUBLIC "-//W3C//DTD SVG 20010904//EN"
 "http://www.w3.org/TR/2001/REC-SVG-20010904/DTD/svg10.dtd">
<svg version="1.0" xmlns="http://www.w3.org/2000/svg"
 width="400.000000pt" height="400.000000pt" viewBox="0 0 400.000000 400.000000"
 preserveAspectRatio="xMidYMid meet">

<g transform="translate(0.000000,400.000000) scale(0.100000,-0.100000)"
fill="#000000" stroke="none">
<path d="M1760 3795 c-195 -27 -392 -85 -557 -166 -351 -172 -655 -474 -832
-827 -157 -313 -222 -697 -176 -1045 15 -116 61 -314 86 -375 l14 -32 95 66
c136 94 262 171 362 221 89 44 115 52 102 31 -5 -7 -3 -8 5 -4 7 5 10 10 8 13
-7 6 52 67 83 86 39 24 187 71 154 49 -6 -4 -27 -32 -46 -63 -45 -71 -73 -92
-99 -76 -16 10 -24 6 -56 -25 -47 -44 -85 -66 -77 -43 5 11 2 14 -12 9 -33
-12 -150 -82 -163 -98 -8 -9 -18 -13 -24 -9 -6 3 -7 1 -3 -6 4 -6 0 -14 -11
-18 -10 -4 -21 -11 -25 -17 -3 -5 -14 -11 -23 -12 -22 -3 -33 -14 -14 -14 12
0 -47 -42 -61 -43 -3 -1 -14 -9 -24 -19 -11 -10 -25 -18 -30 -18 -6 0 -27 -16
-46 -35 -19 -19 -40 -35 -47 -35 -23 0 -14 -38 28 -123 178 -354 483 -657 835
-828 127 -62 360 -139 351 -116 -2 7 -32 101 -67 210 -34 109 -69 215 -77 235
-9 20 -26 75 -39 122 -24 91 -80 237 -137 360 -55 118 -136 353 -148 431 -18
119 -1 185 66 249 20 19 46 47 57 63 l19 27 -27 -11 c-16 -5 -43 -27 -61 -47
-38 -43 -55 -38 -19 5 23 28 146 117 152 110 2 -1 -12 -31 -29 -67 -30 -60
-32 -73 -35 -185 -6 -217 31 -323 163 -465 44 -47 103 -115 130 -151 56 -72
89 -85 101 -40 11 44 13 71 4 76 -5 3 -7 12 -3 20 3 8 0 15 -6 15 -6 0 -11 5
-11 11 0 5 5 7 10 4 6 -3 10 -1 10 4 0 6 -4 11 -10 11 -5 0 -10 9 -10 20 0 11
-12 26 -29 34 -19 10 -29 23 -29 38 -1 13 -4 39 -8 58 -6 32 -6 34 10 21 13
-11 14 -16 4 -23 -9 -6 -5 -7 10 -3 13 4 22 2 22 -5 0 -6 4 -9 9 -5 5 3 13 1
16 -5 4 -6 15 -8 25 -5 10 3 28 0 39 -7 16 -10 18 -15 8 -27 -7 -8 -7 -12 -1
-8 6 3 11 0 11 -8 0 -8 -4 -12 -9 -9 -4 3 -8 -2 -8 -10 0 -9 5 -16 11 -16 5 0
9 -8 7 -17 -1 -10 1 -24 6 -32 7 -10 5 -12 -3 -6 -10 6 -11 3 -2 -13 6 -11 16
-22 21 -24 10 -3 17 -24 19 -54 1 -17 98 -38 106 -23 3 4 14 5 25 2 16 -4 33
7 65 41 47 48 85 64 65 26 -6 -11 -9 -20 -6 -20 3 0 -1 -15 -9 -34 -9 -21 -11
-43 -6 -62 6 -22 9 -25 14 -11 3 9 12 17 18 17 8 0 8 -4 1 -13 -13 -15 -34
-67 -27 -67 2 0 11 12 19 28 8 15 33 47 56 71 22 25 40 49 40 56 0 6 15 40 34
75 31 60 58 136 70 200 4 18 19 32 52 48 25 13 48 22 49 20 5 -6 114 -384 120
-416 7 -37 3 -38 -51 -17 -31 13 -35 13 -21 1 15 -12 16 -16 3 -28 -7 -8 -16
-23 -19 -34 -5 -21 -11 23 -8 63 2 16 -5 23 -29 28 -17 4 -32 5 -34 3 -1 -1
-7 -30 -14 -63 -10 -51 -9 -67 4 -105 13 -36 15 -68 10 -164 -4 -65 -11 -126
-15 -135 -5 -9 -14 -99 -20 -201 -7 -102 -14 -193 -17 -204 -5 -16 -2 -17 37
-11 306 48 430 104 513 230 55 83 95 86 99 7 l1 -41 36 21 c346 209 575 454
741 793 124 254 181 505 181 800 0 295 -57 546 -181 800 -279 570 -806 943
-1436 1015 -119 13 -307 11 -425 -5z m3 -753 c9 -8 17 -12 17 -7 0 4 8 1 17
-6 11 -10 14 -10 9 -1 -4 7 -1 12 9 12 10 0 13 -5 9 -12 -6 -10 -4 -10 8 0 13
10 18 10 24 1 4 -7 -1 -18 -12 -26 -18 -14 -18 -14 6 -11 17 2 25 9 25 23 0
30 63 24 91 -9 12 -14 25 -22 28 -19 3 4 6 -1 6 -10 0 -9 6 -17 14 -17 19 0
40 -26 26 -35 -5 -3 -10 -11 -10 -17 0 -7 5 -6 15 2 12 10 16 9 21 -4 3 -9 10
-16 16 -16 5 0 7 4 4 8 -3 5 1 9 9 9 8 0 12 -4 9 -9 -3 -4 9 -5 27 -1 32 6 60
-14 37 -28 -6 -4 -4 -11 6 -20 9 -8 24 -20 32 -28 19 -17 85 -31 174 -36 l65
-3 -57 6 c-73 9 -85 22 -22 23 43 1 45 2 19 9 -26 7 -27 8 -6 9 20 1 21 3 11
16 -10 12 -10 15 3 15 9 0 21 9 27 20 15 29 46 25 71 -10 28 -37 53 -48 44
-19 -5 15 -4 19 4 15 6 -4 11 -15 11 -24 0 -9 9 -28 20 -42 16 -21 20 -41 20
-127 0 -109 -4 -117 -49 -94 -24 14 -146 -4 -202 -28 -78 -35 -98 -60 -104
-135 -5 -53 -3 -66 8 -66 8 0 21 -7 28 -16 13 -16 40 -29 92 -45 37 -11 48 14
18 40 -28 25 -12 36 45 32 23 -1 45 2 48 8 5 7 15 7 32 1 34 -13 36 -13 29 9
-3 11 -1 22 5 26 8 5 8 11 -1 21 -16 19 -3 61 22 69 11 4 23 5 25 2 3 -2 5
-78 6 -168 1 -170 -7 -223 -54 -369 -26 -80 -86 -204 -135 -277 -27 -40 -33
-57 -24 -66 6 -6 11 -8 11 -5 0 4 19 -10 43 -32 23 -21 53 -47 67 -59 14 -11
19 -20 13 -21 -7 0 -13 5 -13 10 0 6 -7 10 -15 10 -8 0 -15 5 -15 10 0 6 -9
10 -21 10 -11 0 -18 4 -15 9 3 4 -5 7 -19 6 -16 -2 -22 1 -19 10 5 11 -10 13
-48 6 -15 -2 -8 -21 22 -54 17 -19 30 -40 30 -46 0 -6 5 -11 11 -11 6 0 3 -8
-6 -17 -15 -15 -16 -18 -2 -28 10 -7 12 -16 6 -27 -10 -19 -1 -51 12 -42 5 3
2 -11 -8 -30 -9 -20 -19 -36 -23 -36 -10 0 -68 103 -84 149 -8 25 -12 49 -8
55 3 6 -6 3 -21 -7 -16 -10 -36 -17 -45 -16 -9 1 -19 0 -22 -1 -16 -7 -182 -6
-186 2 -3 4 -14 4 -24 -2 -23 -12 -40 -13 -21 -1 9 6 -2 11 -33 15 -25 4 -50
4 -56 1 -5 -3 -10 1 -10 9 0 9 -5 16 -12 16 -6 0 -29 19 -51 43 -22 23 -37 33
-33 23 5 -16 4 -17 -8 -7 -8 7 -12 20 -9 28 4 11 2 14 -5 9 -8 -5 -14 3 -18
23 -6 29 -24 34 -54 16 -6 -3 -10 -1 -10 4 0 6 -5 11 -10 11 -14 0 -76 60 -73
71 2 5 -3 9 -11 9 -7 0 -25 9 -40 21 -14 11 -26 17 -26 12 0 -17 -54 54 -76
102 -39 81 -24 12 18 -83 10 -23 20 -68 22 -100 2 -36 7 -56 14 -55 7 2 12 -4
12 -13 0 -8 5 -12 10 -9 6 3 10 3 11 -2 2 -26 9 -47 18 -56 6 -6 7 -16 1 -27
-6 -11 -4 -26 6 -44 15 -30 18 -44 7 -33 -3 4 -12 2 -20 -4 -9 -9 -13 -8 -13
0 0 6 -9 11 -20 11 -11 0 -20 6 -20 14 0 8 -6 17 -12 19 -7 3 -3 6 10 6 13 1
21 -3 18 -8 -3 -4 6 -13 19 -19 31 -14 33 0 3 21 -18 13 -20 18 -10 25 11 7 9
10 -7 15 -12 3 -19 0 -18 -6 1 -6 -6 -13 -15 -15 -11 -2 -18 2 -18 10 0 8 -16
28 -35 45 -19 17 -35 37 -35 44 0 8 -15 43 -32 79 -31 61 -33 71 -32 162 2
105 19 197 37 199 7 1 -7 5 -31 10 -46 9 -77 37 -87 79 -7 29 -77 183 -86 190
-24 19 -86 190 -69 190 5 0 14 -19 20 -42 6 -24 19 -61 30 -83 l19 -40 1 40
c1 37 17 93 20 70 0 -5 3 -29 5 -53 2 -24 8 -49 14 -56 9 -11 18 -40 20 -69 1
-4 14 -13 31 -18 16 -6 32 -19 35 -30 4 -10 13 -19 21 -19 25 0 15 28 -21 61
-40 37 -43 45 -15 52 16 4 20 0 21 -21 2 -26 2 -26 6 -3 4 19 7 21 14 10 7
-12 9 -12 9 0 0 8 10 3 25 -13 l25 -27 6 30 c4 17 10 31 15 31 5 0 7 10 5 23
-2 12 3 31 10 42 7 11 13 44 13 73 0 56 12 82 40 82 20 0 51 53 51 86 0 32 28
74 49 74 14 0 14 2 1 10 -12 8 -11 10 8 10 12 0 22 6 22 14 0 20 -17 29 -23
14 -4 -9 -6 -7 -6 3 -1 9 6 22 14 29 8 7 15 29 15 49 0 28 -3 33 -11 21 -8
-12 -10 -12 -8 5 1 11 1 27 0 35 -1 13 -3 13 -12 0 -9 -12 -10 -12 -5 3 3 10
6 22 6 26 0 4 11 21 25 37 20 24 33 29 68 29 28 0 41 4 40 13 -2 6 2 12 7 12
6 0 10 8 10 18 0 35 15 36 53 4z m614 -168 c-3 -3 -12 -4 -19 -1 -8 3 -5 6 6
6 11 1 17 -2 13 -5z m203 -344 c0 -5 -7 -10 -16 -10 -8 0 -12 5 -9 10 3 6 10
10 16 10 5 0 9 -4 9 -10z m-85 -45 c-25 -8 -32 -14 -20 -15 11 -1 14 -4 8 -7
-7 -2 -30 1 -50 9 l-38 13 50 6 c80 9 93 8 50 -6z m-206 -28 c-2 -1 -15 -11
-29 -22 l-25 -20 19 23 c11 12 24 22 29 22 6 0 8 -1 6 -3z m198 -18 c24 -11
43 -25 43 -30 0 -14 -9 -11 -48 13 -27 16 -52 22 -98 23 -34 0 -60 3 -57 8 10
16 117 7 160 -14z m-1247 -30 c0 -6 -4 -7 -10 -4 -5 3 -10 11 -10 16 0 6 5 7
10 4 6 -3 10 -11 10 -16z m1033 -3 c-10 -13 -20 -22 -22 -20 -4 4 29 44 36 44
2 0 -4 -11 -14 -24z m177 6 c26 -21 20 -42 -13 -42 -18 0 -22 6 -23 30 -1 35
5 37 36 12z m-70 0 c0 -5 -7 -9 -15 -9 -8 0 -15 4 -15 9 0 4 7 8 15 8 8 0 15
-4 15 -8z m-73 -18 c-3 -3 -12 -4 -19 -1 -8 3 -5 6 6 6 11 1 17 -2 13 -5z m28
-25 c-22 -4 -51 -8 -65 -7 -35 1 34 15 75 16 25 0 23 -2 -10 -9z m197 -804
c26 -13 83 -50 125 -83 43 -32 96 -69 118 -82 69 -41 175 -121 186 -142 10
-18 9 -19 -13 -7 -20 11 -20 8 7 -23 17 -19 32 -34 33 -32 2 1 12 -5 22 -13
13 -11 15 -19 8 -27 -8 -8 -26 4 -64 45 -30 31 -54 61 -54 68 0 7 -4 10 -9 7
-4 -3 -18 6 -31 19 -18 19 -26 22 -37 14 -7 -6 -10 -16 -6 -22 3 -6 -5 -2 -19
9 -15 10 -32 28 -38 39 -8 13 -2 10 17 -8 25 -23 31 -25 36 -13 4 9 3 15 -1
14 -4 -1 -18 4 -32 12 -14 8 -33 13 -43 11 -9 -1 -20 4 -23 12 -3 9 -13 13
-26 9 -17 -4 -19 -2 -13 19 4 17 4 20 -4 10 -8 -12 -16 -10 -50 14 -23 15 -39
30 -36 33 2 3 11 -1 19 -7 11 -9 16 -9 22 0 4 7 3 9 -3 6 -11 -7 -45 28 -36
37 4 3 -1 6 -10 6 -9 0 -21 8 -26 19 -6 10 -33 33 -61 51 -27 18 -50 34 -50
37 0 7 42 -7 92 -32z m-82 -166 c0 -28 -25 -23 -26 5 -1 17 2 23 12 19 8 -3
14 -14 14 -24z m-345 -28 c-6 -33 -36 -71 -56 -71 -15 0 -18 6 -15 32 4 33 28
58 57 58 12 0 17 -6 14 -19z m-598 -13 c-3 -8 -6 -5 -6 6 -1 11 2 17 5 13 3
-3 4 -12 1 -19z m160 0 c-3 -8 -6 -5 -6 6 -1 11 2 17 5 13 3 -3 4 -12 1 -19z
m822 -245 c-1 -53 -6 -49 -11 10 -2 20 0 37 4 37 4 0 8 -21 7 -47z m8 -85 c-3
-7 -5 -2 -5 12 0 14 2 19 5 13 2 -7 2 -19 0 -25z m80 10 c-3 -8 -6 -5 -6 6 -1
11 2 17 5 13 3 -3 4 -12 1 -19z m-174 -65 c-3 -7 -6 -13 -8 -13 -2 0 -5 6 -8
13 -3 8 1 14 8 14 7 0 11 -6 8 -14z m-3 -35 c0 -6 -6 -5 -15 2 -12 10 -15 9
-15 -5 0 -10 -3 -16 -6 -12 -4 3 -4 13 -1 21 7 17 37 11 37 -6z m647 -120 c-3
-8 -6 -5 -6 6 -1 11 2 17 5 13 3 -3 4 -12 1 -19z"/>
<path d="M2138 2883 c7 -3 16 -2 19 1 4 3 -2 6 -13 5 -11 0 -14 -3 -6 -6z"/>
<path d="M1720 2596 c-14 -8 -43 -18 -65 -22 -31 -5 -36 -8 -21 -14 17 -6 16
-8 -12 -18 -18 -6 -32 -14 -32 -17 0 -3 4 -3 10 0 5 3 24 -1 42 -9 18 -8 40
-17 48 -19 8 -3 -10 -6 -40 -6 l-55 -1 29 -15 c15 -8 40 -15 55 -15 25 -1 25
-1 -8 -15 -18 -8 -37 -12 -42 -9 -5 3 -9 -2 -9 -10 0 -9 -4 -16 -10 -16 -18 0
-10 -29 10 -35 11 -3 46 -3 77 1 32 3 72 5 88 4 41 -4 103 -2 145 6 l35 5 -44
-25 c-23 -14 -47 -26 -52 -26 -5 0 -8 -6 -6 -12 1 -8 -7 -12 -23 -11 -20 2
-22 1 -8 -7 11 -7 45 -4 110 8 57 12 95 15 99 9 4 -5 12 -1 18 9 6 11 11 15
11 10 0 -11 30 14 30 26 0 5 -4 7 -9 4 -5 -3 -12 5 -15 18 -3 13 -8 30 -11 38
-4 9 2 14 16 15 29 2 29 4 22 46 -4 29 -11 39 -32 44 -14 3 -32 12 -39 20 -7
7 -25 16 -40 19 -15 3 -38 10 -52 16 -43 18 -191 21 -220 4z m-37 -63 c-7 -2
-19 -2 -25 0 -7 3 -2 5 12 5 14 0 19 -2 13 -5z m202 -43 c-22 -4 -60 -10 -85
-14 -41 -5 -43 -5 -26 9 14 10 41 15 85 14 60 -1 62 -2 26 -9z m-90 -40 c-11
-5 -27 -9 -35 -9 -13 -1 -13 0 0 9 8 5 24 9 35 9 l20 0 -20 -9z m147 -21 c17
-9 18 -13 7 -20 -26 -17 -59 -10 -59 11 0 22 20 26 52 9z m93 -29 c3 -5 1 -10
-4 -10 -6 0 -11 5 -11 10 0 6 2 10 4 10 3 0 8 -4 11 -10z m8 -27 c-7 -2 -19
-2 -25 0 -7 3 -2 5 12 5 14 0 19 -2 13 -5z"/>
<path d="M1745 2330 c-3 -5 1 -10 9 -10 9 0 16 5 16 10 0 6 -4 10 -9 10 -6 0
-13 -4 -16 -10z"/>
<path d="M1976 2143 c-6 -14 -5 -15 5 -6 7 7 10 15 7 18 -3 3 -9 -2 -12 -12z"/>
<path d="M1961 2093 c-1 -35 20 -55 71 -67 34 -8 44 -7 41 5 -3 10 9 12 31 3
9 -3 13 -11 9 -17 -3 -5 -1 -7 5 -3 5 3 12 2 14 -3 2 -5 20 -5 43 -1 22 4 30
8 18 9 -31 1 -33 2 -70 18 -18 7 -57 13 -87 13 -52 0 -56 2 -62 28 -10 46 -12
48 -13 15z"/>
<path d="M2268 2033 c-10 -2 -18 -8 -18 -13 0 -5 14 -4 30 1 45 16 36 25 -12
12z"/>
<path d="M1795 1937 c-21 -33 -27 -77 -15 -112 9 -27 9 -25 4 13 -4 32 -1 52
15 82 23 44 20 54 -4 17z"/>
<path d="M2398 1948 c8 -9 12 -35 10 -59 l-3 -43 -52 3 c-31 1 -72 -5 -103
-16 -44 -16 -52 -16 -60 -3 -6 9 -5 17 1 21 6 3 -19 14 -55 24 -37 10 -69 15
-73 12 -3 -4 3 -7 15 -7 12 0 22 -5 22 -11 0 -5 -4 -7 -10 -4 -5 3 -10 1 -10
-6 0 -8 -7 -6 -20 6 -14 13 -28 16 -57 11 -21 -4 -68 -9 -105 -12 -38 -4 -68
-11 -68 -16 0 -5 4 -7 8 -4 5 3 24 -5 43 -16 56 -35 78 -33 37 4 -13 11 -16
16 -8 12 8 -5 24 -10 35 -11 11 -2 50 -8 86 -14 87 -14 207 -14 242 0 19 8 27
7 27 0 0 -8 5 -8 15 1 8 7 26 9 43 5 41 -9 62 15 62 69 0 30 -6 48 -17 57 -16
13 -17 12 -5 -3z m-348 -92 c0 -2 -9 -6 -20 -9 -11 -3 -20 -1 -20 4 0 5 9 9
20 9 11 0 20 -2 20 -4z m121 -23 c12 -15 12 -16 -1 -8 -8 5 -26 8 -40 7 -23
-1 -23 -1 -5 7 28 13 31 13 46 -6z"/>
<path d="M2230 1870 c20 -13 43 -13 35 0 -3 6 -16 10 -28 10 -18 0 -19 -2 -7
-10z"/>
<path d="M1800 1845 c0 -8 2 -15 4 -15 2 0 6 7 10 15 3 8 1 15 -4 15 -6 0 -10
-7 -10 -15z"/>
<path d="M2067 1724 c-13 -14 -7 -25 11 -20 9 3 31 2 47 -2 34 -10 77 -2 82
14 4 12 -128 20 -140 8z"/>
<path d="M2010 1683 c0 -4 5 -15 10 -23 8 -13 10 -13 10 2 0 9 -4 20 -10 23
-5 3 -10 3 -10 -2z"/>
<path d="M1460 1570 c0 -16 17 -20 28 -7 8 10 6 13 -9 14 -10 1 -19 -2 -19 -7z"/>
<path d="M2380 1460 c0 -5 5 -10 11 -10 5 0 7 5 4 10 -3 6 -8 10 -11 10 -2 0
-4 -4 -4 -10z"/>
<path d="M2380 1401 c0 -5 5 -13 10 -16 6 -3 10 -2 10 4 0 5 -4 13 -10 16 -5
3 -10 2 -10 -4z"/>
<path d="M1555 1280 c3 -5 8 -10 11 -10 2 0 4 5 4 10 0 6 -5 10 -11 10 -5 0
-7 -4 -4 -10z"/>
<path d="M1940 922 c0 -6 -16 -31 -35 -56 -19 -26 -35 -53 -35 -61 0 -8 -7
-15 -15 -15 -21 0 -19 -13 5 -35 19 -18 20 -17 43 36 33 74 50 129 43 136 -3
4 -6 1 -6 -5z"/>
</g>
</svg>
